<svg
          width="24"
          height="24"
          viewBox="0 0 24 24"
          fill="none"
          xmlns="http://www.w3.org/2000/svg"
        >
          <path
            d="M16.3456 24C20.5301 24 23.9291 20.5912 23.9528 16.4296L24 10.3021L23.9291 9.9688L23.728 9.54933L23.388 9.2864C22.9467 8.94 20.7091 9.30987 20.1067 8.76267C19.6792 8.37227 19.6125 7.66693 19.4832 6.71093C19.2429 4.85947 19.0909 4.76293 18.8008 4.1352C17.748 1.9064 14.8893 0.231467 12.9256 0H7.60613C3.42133 0 0 3.41387 0 7.58347V16.4296C0 20.5912 3.42133 24 7.60613 24H16.3456ZM7.70293 6.19547H11.9203C12.7256 6.19547 13.3776 6.84907 13.3776 7.64347C13.3776 8.43467 12.7256 9.0936 11.9203 9.0936H7.70293C6.8976 9.0936 6.24693 8.4344 6.24693 7.64347C6.24693 6.84907 6.8976 6.19547 7.70293 6.19547ZM6.24693 16.3176C6.24693 15.5235 6.8976 14.8747 7.70293 14.8747H16.2723C17.0723 14.8747 17.7219 15.5235 17.7219 16.3176C17.7219 17.1011 17.0723 17.7603 16.2723 17.7603H7.70293C6.8976 17.7603 6.24693 17.1013 6.24693 16.3176Z"
            fill="#FDFDFF"
          />
        </svg>