<svg
  width="10"
  height="10"
  viewBox="0 0 10 10"
  fill="none"
  xmlns="http://www.w3.org/2000/svg"
>
  <path
    d="M6.77708 1.92935C5.71385 1.92935 4.83573 1.24999 3.49897 1.24999C3.00383 1.24999 2.5603 1.33562 2.14887 1.48462C2.20589 1.33804 2.23016 1.18108 2.22002 1.02443C2.18486 0.469036 1.72234 0.0235478 1.1575 0.00093062C0.522718 -0.0244991 0 0.474525 0 1.09374C0 1.46535 0.188433 1.79345 0.476191 1.99111V9.53125C0.476191 9.79014 0.689385 10 0.952381 10H1.26984C1.53284 10 1.74603 9.79014 1.74603 9.53125V7.6875C2.30776 7.45187 3.00758 7.25543 4.01657 7.25543C5.07982 7.25543 5.95792 7.93478 7.29468 7.93478C8.25042 7.93478 9.01427 7.61654 9.72534 7.13678C9.89762 7.02055 10 6.82756 10 6.62197V1.87392C10 1.41703 9.51847 1.11474 9.09752 1.3072C8.41621 1.61869 7.58058 1.92935 6.77708 1.92935Z"
    fill="white"
  />
</svg>
