<svg
    width="15"
    height="15"
    viewBox="0 0 15 15"
    fill="none"
    xmlns="http://www.w3.org/2000/svg"
    aria-hidden="true"
    >
    <path
        d="M14.7102 13.2417C15.1516 13.697 15.0813 14.3733 14.5501 14.7516C14.0189 15.13 13.2299 15.0697 12.7886 14.6144L7.5 9.17397L2.21144 14.6144C1.77008 15.0697 0.98109 15.13 0.44989 14.7516C-0.0813089 14.3733 -0.151615 13.697 0.289749 13.2417L5.87125 7.5L0.289749 1.75828C-0.151615 1.30296 -0.0813089 0.626678 0.44989 0.248361C0.98109 -0.129956 1.77008 -0.0696936 2.21144 0.385627L7.5 5.82603L12.7886 0.385627C13.2299 -0.0696936 14.0189 -0.129956 14.5501 0.248361C15.0813 0.626678 15.1516 1.30296 14.7102 1.75828L9.12875 7.5L14.7102 13.2417Z"
        fill="#846DE9"
        fillOpacity="0.4"
    />
</svg>