<svg width="15" height="16" viewBox="0 0 15 16" fill="none" xmlns="http://www.w3.org/2000/svg">
<path d="M7.5 0.610168C3.35816 0.610168 0 3.96953 0 8.11017C0 12.2532 3.35816 15.6102 7.5 15.6102C11.6418 15.6102 15 12.2532 15 8.11017C15 3.96953 11.6418 0.610168 7.5 0.610168ZM7.5 3.93678C8.20149 3.93678 8.77016 4.50545 8.77016 5.20694C8.77016 5.90843 8.20149 6.4771 7.5 6.4771C6.79851 6.4771 6.22984 5.90843 6.22984 5.20694C6.22984 4.50545 6.79851 3.93678 7.5 3.93678ZM9.19355 11.6182C9.19355 11.8186 9.03106 11.9811 8.83064 11.9811H6.16935C5.96894 11.9811 5.80645 11.8186 5.80645 11.6182V10.8924C5.80645 10.692 5.96894 10.5295 6.16935 10.5295H6.53226V8.59404H6.16935C5.96894 8.59404 5.80645 8.43155 5.80645 8.23114V7.50533C5.80645 7.30492 5.96894 7.14243 6.16935 7.14243H8.10484C8.30525 7.14243 8.46774 7.30492 8.46774 7.50533V10.5295H8.83064C9.03106 10.5295 9.19355 10.692 9.19355 10.8924V11.6182Z" fill="#5333E1"/>
</svg>
